<?xml version="1.0" standalone="no"?>
<!DOCTYPE svg PUBLIC "-//W3C//DTD SVG 20010904//EN"
 "http://www.w3.org/TR/2001/REC-SVG-20010904/DTD/svg10.dtd">
<svg version="1.0" xmlns="http://www.w3.org/2000/svg"
 width="512.000000pt" height="512.000000pt" viewBox="0 0 512.000000 512.000000"
 preserveAspectRatio="xMidYMid meet">
<metadata>
Created by potrace 1.15, written by Peter Selinger 2001-2017
</metadata>
<g transform="translate(0.000000,512.000000) scale(0.100000,-0.100000)"
fill="#a83285" stroke="none">
<path d="M2275 5105 c-732 -118 -1311 -607 -1544 -1303 -59 -175 -82 -317 -88
-527 -4 -163 -2 -207 15 -310 71 -415 331 -997 718 -1612 372 -591 837 -1159
1075 -1313 85 -55 132 -55 216 -1 280 181 821 869 1229 1564 127 217 326 616
401 807 69 175 122 343 154 487 30 138 37 417 15 571 -44 297 -143 558 -305
798 -289 431 -705 711 -1215 820 -106 23 -150 27 -351 30 -168 2 -254 -1 -320
-11z m506 -651 c182 -34 366 -111 508 -211 92 -65 238 -210 305 -302 156 -218
236 -468 236 -741 0 -353 -130 -660 -383 -907 -109 -106 -193 -167 -313 -228
-178 -91 -365 -135 -574 -135 -209 0 -396 44 -574 135 -120 61 -204 122 -313
228 -195 190 -316 415 -367 686 -21 109 -21 332 -1 442 96 519 492 923 1010
1029 118 24 350 26 466 4z"/>
<path d="M2668 4219 c-104 -24 -225 -115 -281 -211 -26 -46 -67 -175 -67 -214
0 -19 -7 -22 -60 -27 -76 -7 -189 -59 -246 -113 -58 -56 -87 -100 -117 -176
-23 -56 -27 -82 -27 -162 0 -105 17 -166 70 -249 16 -26 30 -49 30 -52 0 -2
-31 -24 -69 -49 -161 -108 -261 -274 -261 -435 0 -62 19 -103 55 -119 19 -9
184 -12 633 -12 586 0 608 1 639 20 40 24 47 49 41 149 -5 86 -42 180 -99 252
l-31 39 262 0 c160 0 269 4 281 10 68 37 65 193 -7 335 -48 94 -140 182 -273
262 -2 1 10 24 27 50 58 92 75 159 70 275 -4 89 -9 112 -35 170 -56 120 -174
221 -296 254 -57 15 -181 17 -239 3z m229 -255 c53 -31 100 -99 109 -161 19
-130 -88 -252 -224 -253 -42 0 -55 4 -70 22 -23 30 -90 97 -126 126 -27 23
-28 27 -24 88 3 50 10 72 33 105 76 107 196 136 302 73z m-496 -439 c157 -56
199 -257 78 -372 -90 -85 -220 -82 -310 7 -90 90 -90 220 0 309 68 68 144 87
232 56z m574 -248 c33 -13 78 -35 100 -49 43 -27 125 -111 125 -128 0 -6 -81
-10 -235 -10 l-234 0 19 45 c11 25 25 75 32 112 l12 66 60 -6 c34 -4 88 -17
121 -30z m-480 -447 c86 -25 211 -117 244 -179 l12 -21 -421 0 c-231 0 -420 4
-420 8 0 26 77 104 143 146 107 67 302 87 442 46z"/>
</g>
</svg>
