<?xml version="1.0" standalone="no"?>
<!DOCTYPE svg PUBLIC "-//W3C//DTD SVG 20010904//EN"
 "http://www.w3.org/TR/2001/REC-SVG-20010904/DTD/svg10.dtd">
<svg version="1.0" xmlns="http://www.w3.org/2000/svg"
 width="512.000000pt" height="512.000000pt" viewBox="0 0 512.000000 512.000000"
 preserveAspectRatio="xMidYMid meet">
<metadata>
Created by potrace 1.15, written by Peter Selinger 2001-2017
</metadata>
<g transform="translate(0.000000,512.000000) scale(0.100000,-0.100000)"
fill="#000000" stroke="none">
<path d="M2275 5105 c-732 -118 -1311 -607 -1544 -1303 -59 -175 -82 -317 -88
-527 -4 -163 -2 -207 15 -310 71 -415 331 -997 718 -1612 372 -591 837 -1159
1075 -1313 85 -55 132 -55 216 -1 280 181 821 869 1229 1564 127 217 326 616
401 807 69 175 122 343 154 487 30 138 37 417 15 571 -44 297 -143 558 -305
798 -289 431 -705 711 -1215 820 -106 23 -150 27 -351 30 -168 2 -254 -1 -320
-11z m506 -651 c182 -34 366 -111 508 -211 92 -65 238 -210 305 -302 156 -218
236 -468 236 -741 0 -353 -130 -660 -383 -907 -109 -106 -193 -167 -313 -228
-178 -91 -365 -135 -574 -135 -209 0 -396 44 -574 135 -120 61 -204 122 -313
228 -195 190 -316 415 -367 686 -21 109 -21 332 -1 442 96 519 492 923 1010
1029 118 24 350 26 466 4z"/>
<path d="M2465 4055 c-25 -11 -242 -109 -390 -175 -22 -10 -112 -50 -200 -90
-88 -40 -173 -78 -190 -85 -192 -85 -205 -94 -205 -149 0 -38 37 -71 120 -106
41 -18 170 -75 285 -127 116 -52 224 -100 240 -108 17 -7 102 -46 190 -86 142
-66 167 -74 220 -74 53 0 78 8 220 74 88 40 174 79 190 86 17 8 119 54 228
103 l197 90 0 -127 c-1 -95 -4 -131 -15 -145 -12 -16 -15 -66 -15 -278 l0
-258 80 0 80 0 0 254 c0 238 -1 255 -20 279 -18 23 -20 40 -20 170 l0 145 45
18 c52 19 85 55 85 91 0 53 -14 63 -205 148 -16 7 -102 45 -190 85 -88 40
-178 80 -200 90 -64 29 -357 160 -392 176 -39 18 -99 18 -138 -1z"/>
<path d="M1898 3238 c-11 -9 -20 -54 -32 -153 -27 -235 -36 -340 -28 -369 22
-80 178 -177 368 -227 115 -31 125 -32 329 -32 204 0 214 1 329 32 190 50 346
147 368 227 8 29 -1 134 -28 369 -18 147 -28 171 -68 159 -24 -7 -47 -17 -276
-121 -216 -97 -219 -98 -264 -117 -60 -25 -76 -22 -191 29 -16 8 -104 47 -195
88 -303 137 -290 132 -312 115z"/>
</g>
</svg>
